# xmcd CD database file
#
# Track frame offsets:
#	150
#	21494
#	50250
#	71951
#	92469
#	126054
#	138756
#	160850
#	184155
#	205837
#	227241
#
# Disc length: 3215 seconds
#
# Revision: 0
# Processed by: cddbd v1.5.2PL0 Copyright (c) Steve Scherf et al.
# Submitted via: CDex 1.70beta2
#
DISCID=950c8d0b
DTITLE=Margareta Bengtson - Where The Midnight Sun Never Sets - SOL MB-0001
DYEAR=2009
DGENRE=Jazz
TTITLE0=Stardust
TTITLE1=Speak Low
TTITLE2=The Midnight Sun Will Never Set
TTITLE3=Dat Dare
TTITLE4=Spring Is Here
TTITLE5=HoneySuckle Rose
TTITLE6=I Get Along Without You Very Well
TTITLE7=My Funny Valentine
TTITLE8=Leaving London Seeing Stockholm
TTITLE9=My Hidden World
TTITLE10=Inga Rikedomar
EXTD=YEAR: 2009
EXTT0=
EXTT1=
EXTT2=
EXTT3=
EXTT4=
EXTT5=
EXTT6=
EXTT7=
EXTT8=
EXTT9=
EXTT10=
PLAYORDER=
